<svg xmlns="http://www.w3.org/2000/svg" xmlns:xlink="http://www.w3.org/1999/xlink" width="240" zoomAndPan="magnify" viewBox="0 0 180 179.999997" height="240" preserveAspectRatio="xMidYMid meet" version="1.2"><defs><clipPath id="ea983acd4c"><path d="M 63.25 67.625 L 108.523438 67.625 L 108.523438 112.375 L 63.25 112.375 Z M 63.25 67.625 "/></clipPath><clipPath id="e0c5ebdbe5"><path d="M 71.5 67.625 L 100.25 67.625 C 104.804688 67.625 108.5 71.320312 108.5 75.875 L 108.5 104.125 C 108.5 108.679688 104.804688 112.375 100.25 112.375 L 71.5 112.375 C 66.945312 112.375 63.25 108.679688 63.25 104.125 L 63.25 75.875 C 63.25 71.320312 66.945312 67.625 71.5 67.625 Z M 71.5 67.625 "/></clipPath></defs><g id="12e546d1c4"><g clip-rule="nonzero" clip-path="url(#ea983acd4c)"><g clip-rule="nonzero" clip-path="url(#e0c5ebdbe5)"><path style=" stroke:none;fill-rule:nonzero;fill:#31348c;fill-opacity:1;" d="M 63.25 67.625 L 108.523438 67.625 L 108.523438 112.375 L 63.25 112.375 Z M 63.25 67.625 "/></g></g><g style="fill:#ffffff;fill-opacity:1;"><g transform="translate(71.382815, 98.374763)"><path style="stroke:none" d="M -0.03125 -4.109375 L 2.765625 -4.109375 C 2.742188 -3.066406 3.175781 -2.546875 4.0625 -2.546875 C 4.75 -2.546875 5.316406 -2.65625 5.765625 -2.875 C 6.222656 -3.101562 6.5625 -3.445312 6.78125 -3.90625 C 7.007812 -4.375 7.25 -5.3125 7.5 -6.71875 L 9.546875 -17.890625 L 12.703125 -17.890625 L 10.640625 -6.703125 C 10.128906 -3.898438 9.335938 -2.039062 8.265625 -1.125 C 7.203125 -0.207031 5.679688 0.25 3.703125 0.25 C 2.546875 0.25 1.617188 -0.0546875 0.921875 -0.671875 C 0.234375 -1.285156 -0.109375 -2.128906 -0.109375 -3.203125 C -0.109375 -3.441406 -0.0820312 -3.742188 -0.03125 -4.109375 Z M -0.03125 -4.109375 "/></g></g><g style="fill:#ffffff;fill-opacity:1;"><g transform="translate(83.844252, 98.374763)"><path style="stroke:none" d="M 13.59375 0.25 L 12.359375 0.25 L 5.765625 -11.3125 L 3.78125 0 L 0.640625 0 L 3.921875 -17.890625 L 5.390625 -17.890625 L 11.84375 -6.796875 L 13.78125 -17.890625 L 16.921875 -17.890625 Z M 13.59375 0.25 "/></g></g></g></svg>