<svg xmlns="http://www.w3.org/2000/svg" xmlns:xlink="http://www.w3.org/1999/xlink" width="240" zoomAndPan="magnify" viewBox="0 0 180 179.999997" height="240" preserveAspectRatio="xMidYMid meet" version="1.2"><defs><clipPath id="0af7fa73fe"><path d="M 5.585938 57.394531 L 90 57.394531 L 90 99.8125 L 5.585938 99.8125 Z M 5.585938 57.394531 "/></clipPath><clipPath id="ebce27b0a7"><path d="M 14 57.5625 L 81.75 57.5625 C 86.304688 57.5625 90 61.253906 90 65.8125 L 90 91.5625 C 90 96.117188 86.304688 99.8125 81.75 99.8125 L 14 99.8125 C 9.445312 99.8125 5.75 96.117188 5.75 91.5625 L 5.75 65.8125 C 5.75 61.253906 9.445312 57.5625 14 57.5625 Z M 14 57.5625 "/></clipPath><clipPath id="92aadec9a3"><path d="M 90 57.273438 L 174.335938 57.273438 L 174.335938 99.6875 L 90 99.6875 Z M 90 57.273438 "/></clipPath><clipPath id="22fa940ba0"><path d="M 98.25 57.4375 L 166 57.4375 C 170.554688 57.4375 174.25 61.132812 174.25 65.6875 L 174.25 91.4375 C 174.25 95.996094 170.554688 99.6875 166 99.6875 L 98.25 99.6875 C 93.695312 99.6875 90 95.996094 90 91.4375 L 90 65.6875 C 90 61.132812 93.695312 57.4375 98.25 57.4375 Z M 98.25 57.4375 "/></clipPath></defs><g id="1987ec55b9"><g clip-rule="nonzero" clip-path="url(#0af7fa73fe)"><g clip-rule="nonzero" clip-path="url(#ebce27b0a7)"><path style=" stroke:none;fill-rule:nonzero;fill:#31348c;fill-opacity:1;" d="M 5.75 57.5625 L 89.921875 57.5625 L 89.921875 99.8125 L 5.75 99.8125 Z M 5.75 57.5625 "/></g></g><g style="fill:#ffffff;fill-opacity:1;"><g transform="translate(25.484375, 86.81117)"><path style="stroke:none" d="M -0.03125 -4.109375 L 2.765625 -4.109375 C 2.742188 -3.066406 3.175781 -2.546875 4.0625 -2.546875 C 4.75 -2.546875 5.316406 -2.65625 5.765625 -2.875 C 6.222656 -3.101562 6.5625 -3.445312 6.78125 -3.90625 C 7.007812 -4.375 7.25 -5.3125 7.5 -6.71875 L 9.546875 -17.890625 L 12.703125 -17.890625 L 10.640625 -6.703125 C 10.128906 -3.898438 9.335938 -2.039062 8.265625 -1.125 C 7.203125 -0.207031 5.679688 0.25 3.703125 0.25 C 2.546875 0.25 1.617188 -0.0546875 0.921875 -0.671875 C 0.234375 -1.285156 -0.109375 -2.128906 -0.109375 -3.203125 C -0.109375 -3.441406 -0.0820312 -3.742188 -0.03125 -4.109375 Z M -0.03125 -4.109375 "/></g></g><g style="fill:#ffffff;fill-opacity:1;"><g transform="translate(37.945811, 86.81117)"><path style="stroke:none" d="M 1.203125 -6.65625 C 1.203125 -9.832031 2.070312 -12.550781 3.8125 -14.8125 C 5.550781 -17.070312 7.8125 -18.203125 10.59375 -18.203125 C 12.738281 -18.203125 14.382812 -17.632812 15.53125 -16.5 C 16.6875 -15.363281 17.265625 -13.722656 17.265625 -11.578125 C 17.265625 -8.046875 16.378906 -5.179688 14.609375 -2.984375 C 12.835938 -0.785156 10.410156 0.3125 7.328125 0.3125 C 5.441406 0.3125 3.945312 -0.320312 2.84375 -1.59375 C 1.75 -2.875 1.203125 -4.5625 1.203125 -6.65625 Z M 4.5 -6.984375 C 4.5 -5.609375 4.769531 -4.515625 5.3125 -3.703125 C 5.863281 -2.890625 6.664062 -2.484375 7.71875 -2.484375 C 9.65625 -2.484375 11.179688 -3.351562 12.296875 -5.09375 C 13.421875 -6.832031 13.984375 -8.910156 13.984375 -11.328125 C 13.984375 -14.066406 12.78125 -15.4375 10.375 -15.4375 C 8.6875 -15.4375 7.285156 -14.539062 6.171875 -12.75 C 5.054688 -10.957031 4.5 -9.035156 4.5 -6.984375 Z M 4.5 -6.984375 "/></g></g><g style="fill:#ffffff;fill-opacity:1;"><g transform="translate(55.496778, 86.81117)"><path style="stroke:none" d="M 11.734375 -9.984375 C 12.335938 -9.710938 12.84375 -9.195312 13.25 -8.4375 C 13.664062 -7.6875 13.875 -6.882812 13.875 -6.03125 C 13.875 -3.96875 13.148438 -2.421875 11.703125 -1.390625 C 10.253906 -0.367188 7.90625 0.140625 4.65625 0.140625 C 3.59375 0.140625 2.257812 0.09375 0.65625 0 L 3.9375 -17.859375 C 5.300781 -18.054688 6.515625 -18.15625 7.578125 -18.15625 C 12.023438 -18.15625 14.25 -16.6875 14.25 -13.75 C 14.25 -12.96875 14.007812 -12.234375 13.53125 -11.546875 C 13.050781 -10.859375 12.453125 -10.335938 11.734375 -9.984375 Z M 6.6875 -15.375 L 5.921875 -11.015625 C 6.398438 -10.984375 6.835938 -10.96875 7.234375 -10.96875 C 8.398438 -10.96875 9.328125 -11.210938 10.015625 -11.703125 C 10.710938 -12.203125 11.0625 -12.914062 11.0625 -13.84375 C 11.0625 -14.914062 10.117188 -15.453125 8.234375 -15.453125 C 7.835938 -15.453125 7.320312 -15.425781 6.6875 -15.375 Z M 5.5 -8.71875 L 4.359375 -2.59375 C 4.734375 -2.5625 5.09375 -2.546875 5.4375 -2.546875 C 7.0625 -2.546875 8.335938 -2.820312 9.265625 -3.375 C 10.191406 -3.9375 10.65625 -4.738281 10.65625 -5.78125 C 10.65625 -7.769531 9.347656 -8.765625 6.734375 -8.765625 C 6.328125 -8.765625 5.914062 -8.75 5.5 -8.71875 Z M 5.5 -8.71875 "/></g></g><g clip-rule="nonzero" clip-path="url(#92aadec9a3)"><g clip-rule="nonzero" clip-path="url(#22fa940ba0)"><path style=" stroke:none;fill-rule:nonzero;fill:#000000;fill-opacity:1;" d="M 90 57.4375 L 174.171875 57.4375 L 174.171875 99.6875 L 90 99.6875 Z M 90 57.4375 "/></g></g><g style="fill:#ffffff;fill-opacity:1;"><g transform="translate(96.175777, 86.688367)"><path style="stroke:none" d="M 13.59375 0.25 L 12.359375 0.25 L 5.765625 -11.3125 L 3.78125 0 L 0.640625 0 L 3.921875 -17.890625 L 5.390625 -17.890625 L 11.84375 -6.796875 L 13.78125 -17.890625 L 16.921875 -17.890625 Z M 13.59375 0.25 "/></g></g><g style="fill:#ffffff;fill-opacity:1;"><g transform="translate(112.677104, 86.688367)"><path style="stroke:none" d="M 14.796875 -15.09375 L 6.5625 -15.09375 L 5.8125 -10.984375 L 11.71875 -10.984375 L 11.21875 -8.328125 L 5.3125 -8.328125 L 4.3125 -2.78125 L 12.421875 -2.78125 L 11.890625 0 L 0.515625 0 L 3.8125 -17.890625 L 15.3125 -17.890625 Z M 14.796875 -15.09375 "/></g></g><g style="fill:#ffffff;fill-opacity:1;"><g transform="translate(127.506334, 86.688367)"><path style="stroke:none" d="M 5.046875 -6.5625 L 3.84375 0 L 0.59375 0 L 3.96875 -17.859375 C 5.664062 -18.035156 6.960938 -18.125 7.859375 -18.125 C 12.585938 -18.125 14.953125 -16.347656 14.953125 -12.796875 C 14.953125 -10.796875 14.234375 -9.222656 12.796875 -8.078125 C 11.359375 -6.929688 9.5 -6.359375 7.21875 -6.359375 C 6.476562 -6.359375 5.753906 -6.425781 5.046875 -6.5625 Z M 6.609375 -15.171875 L 5.546875 -9.28125 C 5.960938 -9.164062 6.492188 -9.109375 7.140625 -9.109375 C 8.523438 -9.109375 9.625 -9.40625 10.4375 -10 C 11.25 -10.59375 11.65625 -11.445312 11.65625 -12.5625 C 11.65625 -14.4375 10.585938 -15.375 8.453125 -15.375 C 7.890625 -15.375 7.273438 -15.304688 6.609375 -15.171875 Z M 6.609375 -15.171875 "/></g></g><g style="fill:#ffffff;fill-opacity:1;"><g transform="translate(139.503827, 86.688367)"><path style="stroke:none" d="M 11.203125 0 L 10.640625 -3.640625 L 4.25 -3.640625 L 2.15625 0 L -1.15625 0 L 9.703125 -18.125 L 10.84375 -18.125 L 14.515625 0 Z M 9.28125 -12.703125 L 5.609375 -6.015625 L 10.296875 -6.015625 Z M 9.28125 -12.703125 "/></g></g><g style="fill:#ffffff;fill-opacity:1;"><g transform="translate(154.845672, 86.688367)"><path style="stroke:none" d="M 11.890625 0 L 0.609375 0 L 3.890625 -17.890625 L 7.09375 -17.890625 L 4.328125 -2.78125 L 12.40625 -2.78125 Z M 11.890625 0 "/></g></g></g></svg>